# xmcd
#
# Track frame offsets:
#	150
#	13312
#	32124
#	55532
#	73298
#	84810
#	102399
#	111395
#	123902
#	143909
#	159038
#	171488
#	188582
#
# Disc length: 2685 seconds
#
# Revision: 1
# Processed by: cddbd v1.5.2PL0 Copyright (c) Steve Scherf et al.
# Submitted via: audiograbber 1.83.01
#
DISCID=ab0a7b0d
DTITLE=Sophie Zelmani - Love Affair
DYEAR=2004
DGENRE=Country
TTITLE0=September Tears
TTITLE1=Maja's Song
TTITLE2=To Know You
TTITLE3=Memories
TTITLE4=Truth
TTITLE5=Keep It To Yourself
TTITLE6=Grand Is Loving
TTITLE7=Dream Gets Closer
TTITLE8=Fade
TTITLE9=hard To Know
TTITLE10=Your Way
TTITLE11=Stay With My Heart
TTITLE12=Lost In Love
EXTD=
EXTT0=
EXTT1=
EXTT2=
EXTT3=
EXTT4=
EXTT5=
EXTT6=
EXTT7=
EXTT8=
EXTT9=
EXTT10=
EXTT11=
EXTT12=
PLAYORDER=
